{
  "source": "C:\\Users\\Peter\\Desktop\\stuff\\MIUN\\quantitative_research\\video_compression\\videos\\BVI-HD\\BVI-HD_CDVL_videos\\ORIG\\BricksLeaves_1920x1080_60fps.mp4",
  "output": "C:\\Users\\Peter\\Desktop\\stuff\\MIUN\\quantitative_research\\video_compression\\compressed_videos\\BVI-HD\\h264\\1.5\\BricksLeaves_1920x1080_60fps_h264.mp4",
  "codec": "h264",
  "ok": "Input #0, mov,mp4,m4a,3gp,3g2,mj2, from 'C:\\Users\\Peter\\Desktop\\stuff\\MIUN\\quantitative_research\\video_compression\\videos\\BVI-HD\\BVI-HD_CDVL_videos\\ORIG\\BricksLeaves_1920x1080_60fps.mp4':\n  Metadata:\n    major_brand     : isom\n    minor_version   : 512\n    compatible_brands: isomiso2avc1mp41\n    encoder         : Lavf54.28.101\n  Duration: 00:00:05.00, start: 0.000000, bitrate: 524627 kb/s\n  Stream #0:0[0x1](und): Video: h264 (High 4:4:4 Predictive) (avc1 / 0x31637661), yuv420p(progressive), 1920x1080, 524622 kb/s, 60 fps, 60 tbr, 60 tbn (default)\n    Metadata:\n      handler_name    : VideoHandler\n      vendor_id       : [0][0][0][0]\n[out#0/mp4 @ 00000216aa249b40] Codec AVOption b:a (set bitrate (in bits/s)) has not been used for any stream. The most likely reason is either wrong type (e.g. a video option with no video streams) or that it is a private option of some decoder which was not actually used for any stream.\nStream mapping:\n  Stream #0:0 -> #0:0 (h264 (native) -> h264 (libx264))\nPress [q] to stop, [?] for help\n[libx264 @ 00000216aadf04c0] using cpu capabilities: MMX2 SSE2Fast SSSE3 SSE4.2 AVX FMA3 BMI2 AVX2\n[libx264 @ 00000216aadf04c0] profile High, level 5.0, 4:2:0, 8-bit\n[libx264 @ 00000216aadf04c0] 264 - core 165 r3222 b35605a - H.264/MPEG-4 AVC codec - Copyleft 2003-2025 - http://www.videolan.org/x264.html - options: cabac=1 ref=5 deblock=1:0:0 analyse=0x3:0x113 me=hex subme=8 psy=1 psy_rd=1.00:0.00 mixed_ref=1 me_range=16 chroma_me=1 trellis=2 8x8dct=1 cqm=0 deadzone=21,11 fast_pskip=1 chroma_qp_offset=-2 threads=18 lookahead_threads=3 sliced_threads=0 nr=0 decimate=1 interlaced=0 bluray_compat=0 constrained_intra=0 bframes=3 b_pyramid=2 b_adapt=1 b_bias=0 direct=3 weightb=1 open_gop=0 weightp=2 keyint=250 keyint_min=25 scenecut=40 intra_refresh=0 rc_lookahead=50 rc=cbr mbtree=1 bitrate=1500 ratetol=1.0 qcomp=0.60 qpmin=0 qpmax=69 qpstep=4 vbv_maxrate=1500 vbv_bufsize=1500 nal_hrd=none filler=0 ip_ratio=1.40 aq=1:1.00\nOutput #0, mp4, to 'C:\\Users\\Peter\\Desktop\\stuff\\MIUN\\quantitative_research\\video_compression\\compressed_videos\\BVI-HD\\h264\\1.5\\BricksLeaves_1920x1080_60fps_h264.mp4':\n  Metadata:\n    major_brand     : isom\n    minor_version   : 512\n    compatible_brands: isomiso2avc1mp41\n    encoder         : Lavf62.3.100\n  Stream #0:0(und): Video: h264 (avc1 / 0x31637661), yuv420p(tv, progressive), 1920x1080, q=2-31, 1500 kb/s, 60 fps, 15360 tbn (default)\n    Metadata:\n      encoder         : Lavc62.11.100 libx264\n      handler_name    : VideoHandler\n      vendor_id       : [0][0][0][0]\n    Side data:\n      cpb: bitrate max/min/avg: 1500000/0/1500000 buffer size: 1500000 vbv_delay: N/A\nframe=    0 fps=0.0 q=0.0 size=       0KiB time=N/A bitrate=N/A speed=N/A elapsed=0:00:00.51    \nframe=    0 fps=0.0 q=0.0 size=       0KiB time=N/A bitrate=N/A speed=N/A elapsed=0:00:01.06    \nframe=    0 fps=0.0 q=0.0 size=       0KiB time=N/A bitrate=N/A speed=N/A elapsed=0:00:01.62    \nframe=   24 fps= 11 q=47.0 size=       0KiB time=00:00:00.30 bitrate=   1.3kbits/s speed=0.138x elapsed=0:00:02.16    \nframe=   61 fps= 22 q=46.0 size=       0KiB time=00:00:00.98 bitrate=   0.4kbits/s speed=0.358x elapsed=0:00:02.74    \nframe=   96 fps= 29 q=46.0 size=       0KiB time=00:00:01.50 bitrate=   0.3kbits/s speed=0.456x elapsed=0:00:03.28    \nframe=  128 fps= 33 q=46.0 size=     256KiB time=00:00:02.03 bitrate=1031.6kbits/s speed=0.521x elapsed=0:00:03.90    \nframe=  156 fps= 34 q=46.0 size=     256KiB time=00:00:02.46 bitrate= 850.4kbits/s speed=0.54x elapsed=0:00:04.56    \nframe=  178 fps= 34 q=46.0 size=     256KiB time=00:00:02.91 bitrate= 719.2kbits/s speed=0.56x elapsed=0:00:05.20    \nframe=  198 fps= 34 q=47.0 size=     256KiB time=00:00:03.25 bitrate= 645.4kbits/s speed=0.564x elapsed=0:00:05.75    \nframe=  228 fps= 36 q=49.0 size=     512KiB time=00:00:03.70 bitrate=1133.7kbits/s speed=0.581x elapsed=0:00:06.36    \nframe=  259 fps= 37 q=52.0 size=     512KiB time=00:00:04.28 bitrate= 979.3kbits/s speed=0.614x elapsed=0:00:06.97    \n[mp4 @ 00000216aa2d7ac0] Starting second pass: moving the moov atom to the beginning of the file\n[out#0/mp4 @ 00000216aa249b40] video:855KiB audio:0KiB subtitle:0KiB other streams:0KiB global headers:0KiB muxing overhead: 0.508640%\nframe=  300 fps= 41 q=-1.0 Lsize=     860KiB time=00:00:04.96 bitrate=1418.0kbits/s speed=0.676x elapsed=0:00:07.34    \n[libx264 @ 00000216aadf04c0] frame I:2     Avg QP:44.75  size: 57436\n[libx264 @ 00000216aadf04c0] frame P:76    Avg QP:46.74  size:  4998\n[libx264 @ 00000216aadf04c0] frame B:222   Avg QP:50.53  size:  1713\n[libx264 @ 00000216aadf04c0] consecutive B-frames:  1.3%  0.0%  0.0% 98.7%\n[libx264 @ 00000216aadf04c0] mb I  I16..4: 15.0% 77.0%  8.0%\n[libx264 @ 00000216aadf04c0] mb P  I16..4:  2.3%  1.2%  0.0%  P16..4: 14.3%  1.0%  5.3%  0.0%  0.0%    skip:75.8%\n[libx264 @ 00000216aadf04c0] mb B  I16..4:  0.2%  0.1%  0.0%  B16..8: 10.5%  0.5%  0.0%  direct: 0.3%  skip:88.4%  L0:51.9% L1:46.6% BI: 1.5%\n[libx264 @ 00000216aadf04c0] 8x8 transform intra:51.2% inter:94.3%\n[libx264 @ 00000216aadf04c0] direct mvs  spatial:95.5% temporal:4.5%\n[libx264 @ 00000216aadf04c0] coded y,uvDC,uvAC intra: 29.3% 41.1% 1.8% inter: 1.5% 2.7% 0.0%\n[libx264 @ 00000216aadf04c0] i16 v,h,dc,p: 25% 29% 11% 35%\n[libx264 @ 00000216aadf04c0] i8 v,h,dc,ddl,ddr,vr,hd,vl,hu:  5%  7% 11% 12% 13% 11% 16% 11% 16%\n[libx264 @ 00000216aadf04c0] i4 v,h,dc,ddl,ddr,vr,hd,vl,hu:  4%  5%  2% 12% 13% 13% 18% 11% 23%\n[libx264 @ 00000216aadf04c0] i8c dc,h,v,p: 85%  9%  5%  1%\n[libx264 @ 00000216aadf04c0] Weighted P-Frames: Y:0.0% UV:0.0%\n[libx264 @ 00000216aadf04c0] ref P L0: 54.1%  1.3% 22.3% 11.1% 11.2%\n[libx264 @ 00000216aadf04c0] ref B L0: 66.4% 18.7% 11.4%  3.5%\n[libx264 @ 00000216aadf04c0] ref B L1: 87.2% 12.8%\n[libx264 @ 00000216aadf04c0] kb/s:1400.16\n",
  "seconds": 7.679799318313599,
  "probe_out": {}
}